<svg width="101" height="45" viewBox="0 0 101 45" fill="none" xmlns="http://www.w3.org/2000/svg">
<path d="M74.14 31.09C73.28 31.09 72.6 30.84 72.1 30.34C71.6 29.84 71.35 29.16 71.35 28.3V12.79C71.57 12.75 71.92 12.7 72.4 12.64C72.88 12.56 73.34 12.52 73.78 12.52C74.24 12.52 74.64 12.56 74.98 12.64C75.34 12.7 75.64 12.82 75.88 13C76.12 13.18 76.3 13.43 76.42 13.75C76.54 14.07 76.6 14.49 76.6 15.01V26.86H83.47C83.61 27.08 83.74 27.38 83.86 27.76C83.98 28.12 84.04 28.5 84.04 28.9C84.04 29.7 83.87 30.27 83.53 30.61C83.19 30.93 82.74 31.09 82.18 31.09H74.14ZM94.2494 30.88C94.0294 30.94 93.6894 31 93.2294 31.06C92.7694 31.12 92.3194 31.15 91.8794 31.15C90.9594 31.15 90.2694 31 89.8094 30.7C89.3494 30.38 89.1194 29.72 89.1194 28.72V24.67C88.6194 23.93 88.0794 23.11 87.4994 22.21C86.9194 21.31 86.3494 20.39 85.7894 19.45C85.2294 18.51 84.7094 17.59 84.2294 16.69C83.7494 15.77 83.3594 14.93 83.0594 14.17C83.3194 13.81 83.6694 13.48 84.1094 13.18C84.5694 12.88 85.1294 12.73 85.7894 12.73C86.5694 12.73 87.1994 12.89 87.6794 13.21C88.1794 13.53 88.6494 14.13 89.0894 15.01L91.5794 20.02H91.7594C92.0394 19.4 92.2794 18.84 92.4794 18.34C92.6994 17.82 92.9094 17.31 93.1094 16.81C93.3094 16.29 93.5194 15.76 93.7394 15.22C93.9594 14.66 94.2094 14.02 94.4894 13.3C94.8494 13.12 95.2494 12.98 95.6894 12.88C96.1294 12.78 96.5494 12.73 96.9494 12.73C97.6494 12.73 98.2394 12.92 98.7194 13.3C99.2194 13.66 99.4694 14.21 99.4694 14.95C99.4694 15.19 99.4194 15.48 99.3194 15.82C99.2194 16.16 98.9894 16.68 98.6294 17.38C98.2694 18.06 97.7394 18.99 97.0394 20.17C96.3594 21.35 95.4294 22.89 94.2494 24.79V30.88Z" fill="#0A0A0A"/>
<path d="M1.11 17.02C0.97 16.8 0.84 16.5 0.72 16.12C0.6 15.74 0.54 15.34 0.54 14.92C0.54 14.14 0.71 13.58 1.05 13.24C1.41 12.9 1.87 12.73 2.43 12.73H15.51C15.65 12.95 15.78 13.25 15.9 13.63C16.02 14.01 16.08 14.41 16.08 14.83C16.08 15.61 15.9 16.17 15.54 16.51C15.2 16.85 14.75 17.02 14.19 17.02H10.86V30.88C10.64 30.94 10.29 31 9.81 31.06C9.35 31.12 8.89 31.15 8.43 31.15C7.97 31.15 7.56 31.11 7.2 31.03C6.86 30.97 6.57 30.85 6.33 30.67C6.09 30.49 5.91 30.24 5.79 29.92C5.67 29.6 5.61 29.18 5.61 28.66V17.02H1.11ZM21.2888 13.36C21.6288 13.16 22.1388 12.97 22.8188 12.79C23.5188 12.61 24.2188 12.52 24.9188 12.52C25.9188 12.52 26.7988 12.67 27.5588 12.97C28.3388 13.25 28.8388 13.7 29.0588 14.32C29.4188 15.36 29.8088 16.57 30.2288 17.95C30.6488 19.33 31.0688 20.76 31.4888 22.24C31.9088 23.7 32.3188 25.15 32.7188 26.59C33.1188 28.01 33.4688 29.27 33.7688 30.37C33.5288 30.65 33.1688 30.87 32.6888 31.03C32.2088 31.21 31.6388 31.3 30.9788 31.3C30.4988 31.3 30.0888 31.26 29.7488 31.18C29.4288 31.1 29.1588 30.98 28.9388 30.82C28.7388 30.66 28.5688 30.45 28.4288 30.19C28.3088 29.93 28.1988 29.63 28.0988 29.29L27.5588 27.22H22.1288C21.9688 27.82 21.8088 28.44 21.6488 29.08C21.4888 29.72 21.3288 30.34 21.1688 30.94C20.8888 31.04 20.5888 31.12 20.2688 31.18C19.9688 31.26 19.5988 31.3 19.1588 31.3C18.1388 31.3 17.3788 31.13 16.8788 30.79C16.3988 30.43 16.1588 29.94 16.1588 29.32C16.1588 29.04 16.1988 28.76 16.2788 28.48C16.3588 28.2 16.4488 27.87 16.5488 27.49C16.6888 26.95 16.8788 26.28 17.1188 25.48C17.3788 24.68 17.6588 23.82 17.9588 22.9C18.2588 21.96 18.5788 21 18.9188 20.02C19.2588 19.04 19.5787 18.12 19.8787 17.26C20.1788 16.38 20.4488 15.6 20.6888 14.92C20.9488 14.24 21.1488 13.72 21.2888 13.36ZM24.8888 17.23C24.6088 18.07 24.2888 19.01 23.9288 20.05C23.5888 21.07 23.2788 22.11 22.9988 23.17H26.7188C26.4388 22.09 26.1488 21.04 25.8488 20.02C25.5688 18.98 25.3088 18.05 25.0688 17.23H24.8888ZM41.5045 23.77C40.6245 23.47 39.8245 23.17 39.1045 22.87C38.3845 22.55 37.7645 22.17 37.2445 21.73C36.7245 21.29 36.3145 20.77 36.0145 20.17C35.7345 19.55 35.5945 18.8 35.5945 17.92C35.5945 16.22 36.2445 14.86 37.5445 13.84C38.8645 12.82 40.7045 12.31 43.0645 12.31C43.9245 12.31 44.7245 12.37 45.4645 12.49C46.2045 12.61 46.8345 12.8 47.3545 13.06C47.8945 13.3 48.3145 13.62 48.6145 14.02C48.9145 14.4 49.0645 14.85 49.0645 15.37C49.0645 15.89 48.9445 16.34 48.7045 16.72C48.4645 17.08 48.1745 17.39 47.8345 17.65C47.3945 17.37 46.8045 17.13 46.0645 16.93C45.3245 16.71 44.5145 16.6 43.6345 16.6C42.7345 16.6 42.0745 16.73 41.6545 16.99C41.2345 17.23 41.0245 17.54 41.0245 17.92C41.0245 18.22 41.1545 18.47 41.4145 18.67C41.6745 18.85 42.0645 19.02 42.5845 19.18L44.1745 19.69C46.0545 20.29 47.4945 21.06 48.4945 22C49.5145 22.92 50.0245 24.18 50.0245 25.78C50.0245 27.48 49.3545 28.86 48.0145 29.92C46.6745 30.96 44.7045 31.48 42.1045 31.48C41.1845 31.48 40.3245 31.4 39.5245 31.24C38.7445 31.1 38.0545 30.89 37.4545 30.61C36.8745 30.31 36.4145 29.95 36.0745 29.53C35.7545 29.09 35.5945 28.59 35.5945 28.03C35.5945 27.45 35.7645 26.96 36.1045 26.56C36.4445 26.14 36.8145 25.82 37.2145 25.6C37.7745 26.04 38.4545 26.42 39.2545 26.74C40.0745 27.06 40.9645 27.22 41.9245 27.22C42.9045 27.22 43.5945 27.07 43.9945 26.77C44.3945 26.47 44.5945 26.12 44.5945 25.72C44.5945 25.32 44.4345 25.02 44.1145 24.82C43.7945 24.6 43.3445 24.39 42.7645 24.19L41.5045 23.77Z" fill="#0A0A0A"/>
<path d="M66.6744 29C61.5246 24.589 60.4519 23.5698 56 19.907L56 28.2093" stroke="#DB2777" stroke-width="6" stroke-linecap="round" stroke-linejoin="round"/>
<g filter="url(#filter0_d_1_17)">
<path d="M66.6744 12C61.5246 16.411 60.4519 17.4302 56 21.093V12.7907" stroke="#9333EA" stroke-width="6" stroke-linecap="round" stroke-linejoin="round" shape-rendering="crispEdges"/>
</g>
<defs>
<filter id="filter0_d_1_17" x="52.6" y="8.99994" width="18.6745" height="18.0931" filterUnits="userSpaceOnUse" color-interpolation-filters="sRGB">
<feFlood flood-opacity="0" result="BackgroundImageFix"/>
<feColorMatrix in="SourceAlpha" type="matrix" values="0 0 0 0 0 0 0 0 0 0 0 0 0 0 0 0 0 0 127 0" result="hardAlpha"/>
<feOffset dx="0.6" dy="2"/>
<feGaussianBlur stdDeviation="0.5"/>
<feComposite in2="hardAlpha" operator="out"/>
<feColorMatrix type="matrix" values="0 0 0 0 0.0392157 0 0 0 0 0.0392157 0 0 0 0 0.0392157 0 0 0 0.35 0"/>
<feBlend mode="normal" in2="BackgroundImageFix" result="effect1_dropShadow_1_17"/>
<feBlend mode="normal" in="SourceGraphic" in2="effect1_dropShadow_1_17" result="shape"/>
</filter>
</defs>
</svg>
